name Visual3d_SIMM_grf.mot
datacolumns 19
datarows 41
range 3.850000 4.250000
endheader
time	ground_force_vx	ground_force_vy	ground_force_vz	ground_force_px	ground_force_py	ground_force_pz	l_ground_force_vx	l_ground_force_vy	l_ground_force_vz	l_ground_force_px	l_ground_force_py	l_ground_force_pz	ground_torque_x	ground_torque_y	ground_torque_z	l_ground_torque_x	l_ground_torque_y	l_ground_torque_z
3.850000	-51.796745	339.362823	-12.786809	0.160986	0.001658	-0.119393	2.520187	51.047440	3.462328	-0.231469	0.011583	-0.059783	0.054139	-4.907027	-0.100654	0.000685	-0.596782	0.001268
3.860000	-55.437302	350.327179	-13.561362	0.157511	-0.002722	-0.121424	1.520114	39.761845	3.895117	-0.237499	0.007858	-0.061044	0.056219	-5.095504	-0.104520	0.000664	-0.577986	0.001229
3.870000	-59.215233	361.855499	-14.373189	0.155584	-0.006229	-0.124536	0.850878	30.192112	3.916827	-0.247083	0.004519	-0.062390	0.058210	-5.275967	-0.108222	0.000636	-0.554116	0.001178
3.880000	-63.003227	373.620026	-15.193195	0.155047	-0.008735	-0.128162	0.448239	22.282059	3.482943	-0.262277	0.001826	-0.062829	0.060062	-5.443817	-0.111665	0.000599	-0.521338	0.001108
3.890000	-66.660240	385.239716	-15.989789	0.155465	-0.010338	-0.131771	0.000000	0.000000	0.000000	0.000000	0.000000	0.000000	0.061742	-5.596102	-0.114788	0.000000	0.000000	0.000000
3.900000	-70.050529	396.299286	-16.728409	0.156392	-0.011232	-0.135044	0.000000	0.000000	0.000000	0.000000	0.000000	0.000000	0.063238	-5.731710	-0.117570	0.000000	0.000000	0.000000
3.910000	-73.052155	406.371613	-17.368397	0.157494	-0.011621	-0.137885	0.000000	0.000000	0.000000	0.000000	0.000000	0.000000	0.064560	-5.851534	-0.120028	0.000000	0.000000	0.000000
3.920000	-75.554283	415.055878	-17.866533	0.158572	-0.011683	-0.140350	0.000000	0.000000	0.000000	0.000000	0.000000	0.000000	0.065734	-5.957922	-0.122210	0.000000	0.000000	0.000000
3.930000	-77.461990	422.010773	-18.180763	0.159542	-0.011559	-0.142557	0.000000	0.000000	0.000000	0.000000	0.000000	0.000000	0.066787	-6.053314	-0.124167	0.000000	0.000000	0.000000
3.940000	-78.709129	426.974762	-18.278158	0.160386	-0.011359	-0.144630	0.000000	0.000000	0.000000	0.000000	0.000000	0.000000	0.067742	-6.139914	-0.125943	0.000000	0.000000	0.000000
3.950000	-79.268456	429.816223	-18.156967	0.161125	-0.011156	-0.146658	0.000000	0.000000	0.000000	0.000000	0.000000	0.000000	0.068602	-6.217873	-0.127542	0.000000	0.000000	0.000000
3.960000	-79.148598	430.548248	-17.844257	0.161785	-0.010988	-0.148683	0.000000	0.000000	0.000000	0.000000	0.000000	0.000000	0.069346	-6.285296	-0.128925	0.000000	0.000000	0.000000
3.970000	-78.383942	429.313171	-17.390045	0.162384	-0.010861	-0.150704	0.000000	0.000000	0.000000	0.000000	0.000000	0.000000	0.069942	-6.339296	-0.130033	0.000000	0.000000	0.000000
3.980000	-77.033554	426.378662	-16.857244	0.162920	-0.010764	-0.152702	0.000000	0.000000	0.000000	0.000000	0.000000	0.000000	0.070354	-6.376695	-0.130800	0.000000	0.000000	0.000000
3.990000	-75.183136	422.092102	-16.311119	0.163367	-0.010684	-0.154664	0.000000	0.000000	0.000000	0.000000	0.000000	0.000000	0.070529	-6.392479	-0.131124	0.000000	0.000000	0.000000
4.000000	-72.938828	416.831848	-15.795403	0.163692	-0.010607	-0.156603	0.000000	0.000000	0.000000	0.000000	0.000000	0.000000	0.070405	-6.381272	-0.130894	0.000000	0.000000	0.000000
4.010000	-70.416870	410.974030	-15.327845	0.163892	-0.010523	-0.158546	0.000000	0.000000	0.000000	0.000000	0.000000	0.000000	0.069933	-6.338461	-0.130016	0.000000	0.000000	0.000000
4.020000	-67.737419	404.865784	-14.909129	0.164004	-0.010430	-0.160514	0.000000	0.000000	0.000000	0.000000	0.000000	0.000000	0.069073	-6.260539	-0.128418	0.000000	0.000000	0.000000
4.030000	-65.017838	398.807037	-14.528547	0.164085	-0.010330	-0.162502	0.000000	0.000000	0.000000	0.000000	0.000000	0.000000	0.067801	-6.145272	-0.126053	0.000000	0.000000	0.000000
4.040000	-62.364326	393.025818	-14.167865	0.164169	-0.010229	-0.164500	0.000000	0.000000	0.000000	0.000000	0.000000	0.000000	0.066119	-5.992846	-0.122927	0.000000	0.000000	0.000000
4.050000	-59.869770	387.682098	-13.804434	0.164274	-0.010131	-0.166498	0.000000	0.000000	0.000000	0.000000	0.000000	0.000000	0.064057	-5.805911	-0.119092	0.000000	0.000000	0.000000
4.060000	-57.609333	382.892792	-13.411050	0.164413	-0.010037	-0.168493	0.000000	0.000000	0.000000	0.000000	0.000000	0.000000	0.061652	-5.587966	-0.114622	0.000000	0.000000	0.000000
4.070000	-55.640572	378.748718	-12.968421	0.164603	-0.009947	-0.170485	0.000000	0.000000	0.000000	0.000000	0.000000	0.000000	0.058956	-5.343606	-0.109609	0.000000	0.000000	0.000000
4.080000	-54.004406	375.336151	-12.467236	0.164858	-0.009859	-0.172478	0.000000	0.000000	0.000000	0.000000	0.000000	0.000000	0.056031	-5.078434	-0.104170	0.000000	0.000000	0.000000
4.090000	-52.719902	372.733124	-11.912099	0.165176	-0.009766	-0.174469	0.000000	0.000000	0.000000	0.000000	0.000000	0.000000	0.052938	-4.798094	-0.098420	0.000000	0.000000	0.000000
4.100000	-51.787331	371.000519	-11.319441	0.165542	-0.009667	-0.176454	0.000000	0.000000	0.000000	0.000000	0.000000	0.000000	0.049744	-4.508594	-0.092481	0.000000	0.000000	0.000000
4.110000	-51.186649	370.169403	-10.710833	0.165942	-0.009566	-0.178427	0.000000	0.000000	0.000000	0.000000	0.000000	0.000000	0.046515	-4.215968	-0.086479	0.000000	0.000000	0.000000
4.120000	-50.880035	370.225494	-10.109183	0.166370	-0.009474	-0.180383	0.000000	0.000000	0.000000	0.000000	0.000000	0.000000	0.043308	-3.925288	-0.080516	0.000000	0.000000	0.000000
4.130000	-50.814186	371.095978	-9.538507	0.166821	-0.009395	-0.182309	0.000000	0.000000	0.000000	0.000000	0.000000	0.000000	0.040160	-3.639967	-0.074664	0.000000	0.000000	0.000000
4.140000	-50.929905	372.647430	-9.024311	0.167296	-0.009323	-0.184192	0.000000	0.000000	0.000000	0.000000	0.000000	0.000000	0.037086	-3.361372	-0.068949	0.000000	0.000000	0.000000
4.150000	-51.167736	374.689240	-8.594269	0.167794	-0.009252	-0.186026	0.000000	0.000000	0.000000	0.000000	0.000000	0.000000	0.034083	-3.089159	-0.063366	0.000000	0.000000	0.000000
4.160000	-51.474525	376.980225	-8.274239	0.168314	-0.009182	-0.187815	0.000000	0.000000	0.000000	0.000000	0.000000	0.000000	0.031135	-2.821942	-0.057884	0.000000	0.000000	0.000000
4.170000	-51.813213	379.253510	-8.087234	0.168857	-0.009116	-0.189569	0.000000	0.000000	0.000000	0.000000	0.000000	0.000000	0.028231	-2.558740	-0.052485	0.000000	0.000000	0.000000
4.180000	-52.171623	381.255676	-8.051425	0.169434	-0.009061	-0.191305	0.000000	0.000000	0.000000	0.000000	0.000000	0.000000	0.025362	-2.298766	-0.047153	0.000000	0.000000	0.000000
4.190000	-52.558296	382.765930	-8.168250	0.170056	-0.009030	-0.193039	0.000000	0.000000	0.000000	0.000000	0.000000	0.000000	0.022515	-2.040648	-0.041858	0.000000	0.000000	0.000000
4.200000	-52.987682	383.596863	-8.415379	0.170725	-0.009033	-0.194784	0.000000	0.000000	0.000000	0.000000	0.000000	0.000000	0.019669	-1.782761	-0.036568	0.000000	0.000000	0.000000
4.210000	-53.461735	383.603027	-8.762352	0.171450	-0.009069	-0.196549	-2.809211	20.831511	-2.396779	-0.246646	-0.007008	-0.405755	0.016800	-1.522700	-0.031234	-0.000333	0.289984	-0.000616
4.220000	-53.955452	382.672028	-9.173540	0.172255	-0.009123	-0.198344	-3.659088	36.289066	-2.007546	-0.220630	-0.006632	-0.440506	0.013880	-1.258034	-0.025805	-0.000011	0.009416	-0.000020
4.230000	-54.405750	380.691925	-9.604456	0.173173	-0.009168	-0.200176	-4.006904	56.008492	-2.257386	-0.209136	-0.006144	-0.457408	0.010897	-0.987698	-0.020260	0.000230	-0.200087	0.000425
4.240000	-54.700756	377.522522	-9.996920	0.174219	-0.009183	-0.202044	-3.381855	78.310387	-3.480000	-0.203829	-0.005559	-0.467573	0.007849	-0.711395	-0.014592	0.000386	-0.335904	0.000714
4.250000	-54.683853	372.995361	-10.291214	0.175378	-0.009152	-0.203939	-1.523548	101.424606	-5.394061	-0.201412	-0.004867	-0.475624	0.004716	-0.427401	-0.008767	0.000432	-0.376157	0.000800
